<?xml version="1.0" encoding="iso-8859-1"?>
<!-- Uploaded to: SVG Repo, www.svgrepo.com, Generator: SVG Repo Mixer Tools -->
<!DOCTYPE svg PUBLIC "-//W3C//DTD SVG 1.1//EN" "http://www.w3.org/Graphics/SVG/1.1/DTD/svg11.dtd">
<svg fill="#000000" version="1.1" id="Capa_1" xmlns="http://www.w3.org/2000/svg" xmlns:xlink="http://www.w3.org/1999/xlink" 
	 width="800px" height="800px" viewBox="0 0 180.876 180.876"
	 xml:space="preserve">
<g>
	<path d="M105.631,40.403c1.377-12.106,2.396-24.218,1.418-36.455c-0.148-1.843-1.392-3.229-3.299-3.298
		C96.836,0.4,90.097-0.757,83.264,0.792c-1.543,0.35-2.221,1.739-2.402,3.155c-1.482,11.567-2.381,23.532-1.398,35.179
		c-0.564,5.839-1.034,11.694-1.977,17.471c-0.102,0.625-0.029,1.211,0.126,1.76c-1.052,3.573-1.322,7.572-1.191,9.796
		c0.87,14.763,14.992,16.838,26.502,12.383c1.52-0.588,2.64-1.746,2.644-3.473c0.028-11.013,0.167-21.989,1.695-32.914
		C107.494,42.5,106.726,41.196,105.631,40.403z M87.094,6.742c1.872-0.251,3.753-0.274,5.636-0.22
		c-0.492,0.511-0.896,1.126-1.286,1.756c-0.213-0.285-0.437-0.545-0.673-0.778c-0.152-0.181-0.327-0.337-0.532-0.472
		c-0.023-0.018-0.045-0.043-0.068-0.06c0.009,0.011,0.017,0.022,0.026,0.034c-0.543-0.344-1.203-0.515-1.799-0.286
		c-0.653,0.251-1.084,0.569-1.378,0.929C87.044,7.343,87.062,7.042,87.094,6.742z M83.292,68.111
		c-0.009-0.046-0.014-0.151-0.022-0.207c0.646,1.469,1.67,2.611,3.173,3.264c0.356,1.323,0.811,2.611,1.544,3.821
		C85.722,73.992,84.012,71.883,83.292,68.111z"/>
	<path d="M124.38,27.904c-0.119,0.024-0.195,0.095-0.304,0.132c-0.647-0.192-1.387-0.186-2.163,0.175
		c-8.752,4.067-9.64,12.952-6.588,20.864c-0.938,1.718-0.596,4.019,1.834,4.351c63.742,8.707,14.742,95.919-29.458,98.919
		C31.769,156.142,5.082,66.215,65.15,50.823c0.334-0.085,0.593-0.226,0.825-0.384c1.314,0.155,2.81-0.924,2.25-2.439
		c-2.136-5.779-1.108-10.946,0.435-16.653c0.598-2.213-1.717-3.643-3.594-2.762c-0.439,0.206-0.803,0.481-1.135,0.784
		c-0.112-0.249-0.248-0.479-0.416-0.682c0.337-0.013,0.663-0.06,1.002-0.064c1.96-0.025,1.878-2.795,0-2.984
		C16.235,20.78-3.796,89.493,4.525,126.978c10.84,48.828,79.145,63.229,119.95,48.254c36.434-13.371,54.315-54.484,53.691-91.04
		C177.647,53.651,159.02,21.002,124.38,27.904z M126.271,34.834c-0.943-0.209-1.906-0.372-2.904-0.458
		c-0.038-0.003-0.062,0.014-0.1,0.012c0.354-0.302,0.709-0.603,1.123-0.882c0.243,0.051,0.479,0.115,0.76,0.087
		c2.227-0.221,4.331-0.24,6.38-0.171C129.44,33.332,127.503,33.663,126.271,34.834z M39.462,151.178
		c0.392-0.193,0.711-0.491,0.976-0.85c0.42,0.321,0.825,0.663,1.246,0.982c0.645,0.71,1.288,1.421,1.942,2.124
		C42.233,152.694,40.848,151.936,39.462,151.178z M46.397,144.709c-0.94-1.43-1.864-2.866-2.768-4.311
		c2.357,2.314,4.902,4.422,7.577,6.35C49.613,146.054,48.01,145.373,46.397,144.709z M86.57,160.506
		c-0.38-0.439-0.854-0.83-1.549-1.064c-0.946-0.319-1.882-0.659-2.825-0.982c1.817,0.165,3.653,0.254,5.504,0.255
		c1.169,0,2.333-0.108,3.498-0.206C89.657,159.167,88.115,159.833,86.57,160.506z M130.243,137.081
		c2.469-2.647,4.792-5.455,6.952-8.393c-1.237,2.228-2.398,4.505-3.502,6.823C132.516,135.995,131.368,136.525,130.243,137.081z
		 M151.403,128.079c-1.843,2.578-3.618,5.207-5.346,7.865c0.009-0.688-0.18-1.338-0.538-1.883c2.37-2.924,4.701-5.879,6.999-8.858
		C152.155,126.164,151.814,127.139,151.403,128.079z"/>
</g>
</svg>