<?xml version="1.0" ?><!-- Uploaded to: SVG Repo, www.svgrepo.com, Generator: SVG Repo Mixer Tools -->
<svg fill="#000000" width="800px" height="800px" viewBox="0 0 200 200" data-name="Layer 1" id="Layer_1" xmlns="http://www.w3.org/2000/svg"><title/><path d="M118,26.7c-8-2.5-13,7-9.5,14.5a57.43,57.43,0,0,1,6,26.5c0,31.5-26,57.5-58,57.5a74.59,74.59,0,0,1-10.5-1c-9-1.5-19,6-14,14a76,76,0,0,0,64.5,35.5c42,0,76-33.5,76-75,0-34-24-62.5-54.5-72Zm-21.5,127a59.19,59.19,0,0,1-31-9,77.43,77.43,0,0,0,68.5-77,60.51,60.51,0,0,0-.5-9.5A53.44,53.44,0,0,1,152,98.7C152.5,128.7,127.5,153.7,96.5,153.7ZM48,58.7l-13.5,19a9.84,9.84,0,0,0,8,15.5h35a10,10,0,0,0,0-20H62a54.58,54.58,0,0,1,6.5-8.5c3-4.5,8.5-9.5,9.5-14.5,1-3.5-1-7.5-4-9.5-5-3.5-13.5-2-19-2H37.5a10,10,0,0,0,0,20Z"/></svg>